<?xml version="1.0" standalone="no"?>
<!DOCTYPE svg PUBLIC "-//W3C//DTD SVG 20010904//EN"
 "http://www.w3.org/TR/2001/REC-SVG-20010904/DTD/svg10.dtd">
<svg fill="current" stroke="current" version="1.0" xmlns="http://www.w3.org/2000/svg"
 width="512.000000pt" height="512.000000pt" viewBox="0 0 512.000000 512.000000"
 preserveAspectRatio="xMidYMid meet">

<g transform="translate(0.000000,512.000000) scale(0.100000,-0.100000)"
fill="#000000" stroke="none">
<path d="M2483 5039 c-528 -51 -992 -413 -1174 -917 -22 -62 -23 -64 -53 -58
-81 15 -258 18 -337 6 -234 -35 -434 -135 -600 -300 -283 -280 -384 -674 -273
-1059 111 -385 463 -694 853 -750 l46 -6 3 -523 2 -522 1608 2 1607 3 3 520 2
521 75 11 c204 33 397 134 556 292 141 140 233 301 287 500 22 85 26 115 25
256 0 140 -3 172 -26 256 -129 485 -544 809 -1034 809 l-109 0 -18 53 c-32 91
-126 266 -189 350 -131 177 -327 337 -527 430 -163 76 -293 110 -481 127 -125
11 -116 11 -246 -1z"/>
<path d="M952 423 c3 -294 5 -302 52 -334 30 -20 3032 -26 3092 -7 70 23 74
42 74 351 l0 267 -1611 0 -1610 0 3 -277z"/>
</g>
</svg>
