<?xml version="1.0" standalone="no"?>
<!DOCTYPE svg PUBLIC "-//W3C//DTD SVG 20010904//EN"
 "http://www.w3.org/TR/2001/REC-SVG-20010904/DTD/svg10.dtd">
<svg version="1.0" xmlns="http://www.w3.org/2000/svg"
 width="512.000000pt" height="512.000000pt" viewBox="0 0 512.000000 512.000000"
 preserveAspectRatio="xMidYMid meet">

<g transform="translate(0.000000,512.000000) scale(0.100000,-0.100000)"
fill="#000000" stroke="none">
<path d="M2321 5110 c-868 -84 -1644 -610 -2037 -1382 -139 -273 -221 -536
-266 -853 -20 -140 -17 -504 6 -660 39 -278 121 -541 247 -794 249 -502 647
-900 1150 -1150 815 -406 1779 -350 2539 147 297 194 579 482 771 788 74 116
184 342 234 478 51 138 110 376 131 531 23 157 26 521 6 660 -59 415 -191 769
-410 1099 -92 140 -185 254 -315 385 -399 403 -895 653 -1462 737 -122 18
-466 26 -594 14z m352 -1062 c53 -23 101 -72 128 -132 17 -38 19 -80 19 -670
0 -453 -3 -640 -12 -668 -15 -50 -78 -122 -132 -151 -32 -17 -58 -22 -116 -22
-58 0 -84 5 -116 22 -53 28 -121 105 -135 152 -7 24 -9 251 -7 677 l3 641 30
48 c36 59 95 103 162 121 56 15 109 10 176 -18z m-837 -289 c47 -14 105 -80
119 -136 25 -96 -1 -158 -104 -247 -174 -151 -286 -332 -349 -565 -22 -84 -26
-116 -26 -261 0 -141 3 -178 23 -254 112 -428 426 -729 851 -816 88 -18 128
-21 245 -17 173 6 295 35 441 107 298 145 499 395 585 727 33 126 34 368 1
496 -60 238 -177 431 -354 583 -79 68 -108 119 -108 191 0 71 18 111 70 156
68 58 155 66 240 22 19 -10 87 -70 151 -134 213 -214 344 -454 411 -752 20
-90 23 -131 23 -309 0 -228 -10 -296 -70 -476 -132 -398 -439 -735 -822 -902
-473 -208 -1008 -158 -1451 134 -116 77 -320 280 -396 397 -294 445 -341 976
-128 1461 76 175 190 335 341 479 139 132 190 151 307 116z"/>
</g>
</svg>
